/* XPM */
static char *tile_xpm[] = {
"1 20 2 1",
"0	c #000000",
"1	c #FFFFFF",
"0",
"1",
"0",
"1",
"0",
"1",
"0",
"1",
"0",
"1",
"0",
"1",
"0",
"1",
"0",
"1",
"0",
"1",
"0",
"1"
};
